<?xml version="1.0" encoding="utf-8"?>
<?xml-stylesheet type="text/xsl" href="rss1.xsl"?>
<rss version="2.0" xmlns:atom="http://www.w3.org/2005/Atom" xmlns:content="http://purl.org/rss/1.0/modules/content/" xmlns:dc="http://purl.org/dc/elements/1.1/" xmlns:media="http://search.yahoo.com/mrss/">
<channel>
 <title>Getty</title>
 <link>http://www.gettyimg.com/</link>
 <atom:link href="http://www.gettyimg.com/" rel="self" type="application/rss+xml" />

 
                <item>
                <title><![CDATA[【Requests】[REQ AUD] - Zara Larsson - Poster Girl (Album Instrumentals)]]></title>
                <link><![CDATA[https://sharemania.us/threads/zara-larsson-poster-girl-album-instrumentals.235458/]]></link>
                <description><![CDATA[<article>
<blockquote class="messageText SelectQuoteContainer ugc baseHtml">
I saw one day somebody posted the album Instrumentals, but I can't find them. Does anyone has a link to them?
<div class="messageTextEndMarker">&nbsp;</div>
</blockquote>
</article>]]></description>
                <author><![CDATA[ccadena05]]></author>
                </item>

                
                <item>
                <title><![CDATA[【HD Live Performances】WEB-RiP - Taylor Swift - The Eras Tour (Extended).iT.WEB-DL.2160p.DV.DDP5.1.Atmos.HEVC]]></title>
                <link><![CDATA[https://sharemania.us/threads/taylor-swift-the-eras-tour-extended-it-web-dl-2160p-dv-ddp5-1-atmos-hevc.235457/]]></link>
                <description><![CDATA[<article>
<blockquote class="messageText SelectQuoteContainer ugc baseHtml">
<div class="ToggleTriggerAnchor bbCodeSpoilerContainer">
<button type="button" class="button bbCodeSpoilerButton ToggleTrigger Tooltip JsOnly" data-target="> .SpoilerTarget"><span>Spoiler: <span class="SpoilerTitle">Media info</span></span></button>
<div class="SpoilerTarget bbCodeSpoilerText">Format : MPEG-4<br>
Format profile : Base Media<br>
Codec ID : isom (isom/iso2/mp41)<br>
File size : 38.8 GiB<br>
Duration : 3 h 1 min<br>
Overall bit rate mode : Variable<br>
Overall bit rate : 30.7 Mb/s<br>
Frame rate : 23.976 FPS<br>
Writing application : Lavf58.76.100<br>
Video<br>
ID : 1<br>
Format : HEVC<br>
Format/Info : High Efficiency Video Coding<br>
Format profile : Main 10@L5.1@Main<br>
HDR format : Dolby Vision, Version 1.0, dvhe.05.06, BL+RPU<br>
Codec ID : hev1<br>
Codec ID/Info : High Efficiency Video Coding<br>
Duration : 3 h 1 min<br>
Bit rate : 29.9 Mb/s<br>
Width : 3 832 pixels<br>
Height : 1 600 pixels<br>
Display aspect ratio : 2.40:1<br>
Frame rate mode : Constant<br>
Frame rate : 23.976 (24000/1001) FPS<br>
Color space : YUV<br>
Chroma subsampling : 4:2:0<br>
Bit depth : 10 bits<br>
Scan type : Progressive<br>
Bits/(Pixel*Frame) : 0.203<br>
Stream size : 37.8 GiB (97%)<br>
Color range : Full<br>
Menus : 4<br>
Codec configuration box : hvcC+dvcC<br>
Audio<br>
ID : 2<br>
Format : E-AC-3 JOC<br>
Format/Info : Enhanced AC-3 with Joint Object Coding<br>
Commercial name : Dolby Digital Plus with Dolby Atmos<br>
Codec ID : ec-3<br>
Duration : 3 h 1 min<br>
Bit rate mode : Constant<br>
Bit rate : 768 kb/s<br>
Channel(s) : 6 channels<br>
Channel layout : L R C LFE Ls Rs<br>
Sampling rate : 48.0 kHz<br>
Frame rate : 31.250 FPS (1536 SPF)<br>
Compression mode : Lossy<br>
Stream size : 995 MiB (3%)<br>
Language : English<br>
Service kind : Complete Main<br>
Default : Yes<br>
Alternate group : 1<br>
Menus : 4<br>
Complexity index : Not present / 16<br>
Number of dynamic objects : 15<br>
Bed channel count : 1 channel<br>
Bed channel configuration : LFE<br>
Text<br>
ID : 3<br>
Format : Timed Text<br>
Muxing mode : sbtl<br>
Codec ID : tx3g<br>
Duration : 3 h 0 min<br>
Bit rate mode : Variable<br>
Bit rate : 108 b/s<br>
Frame rate : 0.304 FPS<br>
Stream size : 143 KiB (0%)<br>
Language : English<br>
Default : Yes<br>
Forced : No<br>
Alternate group : 3<br>
Count of events : 2712<br>
Menus : 4<br>
Menu #1<br>
ID : 4<br>
Format : Timed Text<br>
Codec ID : text<br>
Duration : 3 h 0 min<br>
Language : English<br>
Menu For : 1,2,3<br>
00:00:00.000 : Disclaimer<br>
00:00:10.000 : Miss Americana &amp; The Heartbreak Prince<br>
00:02:54.000 : Cruel Summer<br>
00:06:37.000 : Scene 4<br>
00:09:26.000 : The Man<br>
00:12:45.000 : You Need to Calm Down<br>
00:14:30.000 : Lover<br>
00:20:04.000 : Fearless<br>
00:23:11.000 : You Belong With Me<br>
00:27:12.000 : Love Story<br>
00:31:10.000 : willow<br>
00:36:07.000 : marjorie<br>
00:39:15.000 : champagne problems<br>
00:45:45.000 : tolerate it<br>
00:51:07.000 : ...ready for it?<br>
00:55:19.000 : delicate<br>
00:59:13.000 : don't blame me<br>
01:02:38.000 : look what you made me do<br>
01:06:24.000 : Enchanted<br>
01:10:54.000 : 22<br>
01:14:54.000 : We Are Never Ever Getting Back Together<br>
01:18:13.000 : I Knew You Were Trouble<br>
01:20:40.000 : All Too Well (10 Minute Version)<br>
01:31:11.000 : the 1<br>
01:34:58.000 : betty<br>
01:41:42.000 : the last great american dynasty<br>
01:45:38.000 : august<br>
01:49:08.000 : illicit affairs<br>
01:50:55.000 : my tear ricochet<br>
01:54:59.000 : Style<br>
01:57:40.000 : Blank Space<br>
02:01:47.000 : Shake It Off<br>
02:05:33.000 : Bad Blood<br>
02:07:55.000 : Our Song<br>
02:12:58.000 : You're On Your Own, Kid<br>
02:16:37.000 : Scene 36<br>
02:17:24.000 : Lavender Haze<br>
02:21:39.000 : Scene 38<br>
02:25:04.000 : Midnight Rain<br>
02:27:54.000 : Vigilante Shit<br>
02:30:43.000 : Bejeweled<br>
02:34:04.000 : Mastermind<br>
02:37:26.000 : Karma<br>
02:43:23.000 : Extra Performances - The Archer<br>
02:47:18.000 : Extra Performances - Wildest Dream<br>
02:49:44.000 : Extra Performances - Long Live<br>
02:55:29.000 : End Credits<br>
Menu #2<br>
00:00:00.000 : Disclaimer<br>
00:00:10.000 : Miss Americana &amp; The Heartbreak Prince<br>
00:02:54.000 : Cruel Summer<br>
00:06:37.000 : Scene 4<br>
00:09:26.000 : The Man<br>
00:12:45.000 : You Need to Calm Down<br>
00:14:30.000 : Lover<br>
00:20:04.000 : Fearless<br>
00:23:11.000 : You Belong With Me<br>
00:27:12.000 : Love Story<br>
00:31:10.000 : willow<br>
00:36:07.000 : marjorie<br>
00:39:15.000 : champagne problems<br>
00:45:45.000 : tolerate it<br>
00:51:07.000 : ...ready for it?<br>
00:55:19.000 : delicate<br>
00:59:13.000 : don't blame me<br>
01:02:38.000 : look what you made me do<br>
01:06:24.000 : Enchanted<br>
01:10:54.000 : 22<br>
01:14:54.000 : We Are Never Ever Getting Back Together<br>
01:18:13.000 : I Knew You Were Trouble<br>
01:20:40.000 : All Too Well (10 Minute Version)<br>
01:31:11.000 : the 1<br>
01:34:58.000 : betty<br>
01:41:42.000 : the last great american dynasty<br>
01:45:38.000 : august<br>
01:49:08.000 : illicit affairs<br>
01:50:55.000 : my tear ricochet<br>
01:54:59.000 : Style<br>
01:57:40.000 : Blank Space<br>
02:01:47.000 : Shake It Off<br>
02:05:33.000 : Bad Blood<br>
02:07:55.000 : Our Song<br>
02:12:58.000 : You're On Your Own, Kid<br>
02:16:37.000 : Scene 36<br>
02:17:24.000 : Lavender Haze<br>
02:21:39.000 : Scene 38<br>
02:25:04.000 : Midnight Rain<br>
02:27:54.000 : Vigilante Shit<br>
02:30:43.000 : Bejeweled<br>
02:34:04.000 : Mastermind<br>
02:37:26.000 : Karma<br>
02:43:23.000 : Extra Performances - The Archer<br>
02:47:18.000 : Extra Performances - Wildest Dream<br>
02:49:44.000 : Extra Performances - Long Live<br>
02:55:29.000 : End Credits</div>
</div><br>
password:uuuu<br>
<div class="bbCodeBlock bbCodeVfcHH HiddenContent">
<div class="attribution type">Hidden Content:</div>
<blockquote>You must reply before you can see the hidden data contained here.</blockquote>
</div>
<div class="messageTextEndMarker">&nbsp;</div>
</blockquote>
</article>]]></description>
                <author><![CDATA[pcyiiu]]></author>
                </item>

                </channel></rss>